<svg width="512" height="512" viewBox="0 0 512 512" fill="none" xmlns="http://www.w3.org/2000/svg">
<g clip-path="url(#clip0)">
<path fill-rule="evenodd" clip-rule="evenodd" d="M302.647 34.8203C289.105 32.9857 275.195 32.0137 261 32C157.46 32.1 69 83.2 28.82 148.11C9 180.09 29.07 224 63.64 224H357.707C357.242 221.068 357 218.062 357 215C357 208.988 357.931 203.194 359.656 197.753C330.682 195.059 308 170.678 308 141C308 131.114 310.517 121.816 314.944 113.712C301.017 103.32 292 86.7129 292 68C292 55.6223 295.945 44.1661 302.647 34.8203ZM374.402 256C384.656 265.906 398.616 272 414 272C424.239 272 433.848 269.3 442.153 264.573C448.929 288.484 470.919 306 497 306C504.027 306 510.758 304.728 516.973 302.402C516.991 302.934 517 303.467 517 304C517 316.73 511.943 328.939 502.941 337.941C493.939 346.943 481.73 352 469 352H53C40.2696 352 28.0606 346.943 19.0589 337.941C10.0571 328.939 5 316.73 5 304C5 291.27 10.0571 279.061 19.0589 270.059C28.0606 261.057 40.2696 256 53 256H374.402ZM25.6863 388.686C28.6869 385.686 32.7565 384 37 384H485C489.243 384 493.313 385.686 496.314 388.686C499.314 391.687 501 395.757 501 400V416C501 432.974 494.257 449.253 482.255 461.255C470.253 473.257 453.974 480 437 480H85C68.0261 480 51.7475 473.257 39.7452 461.255C27.7428 449.253 21 432.974 21 416V400C21 395.757 22.6857 391.687 25.6863 388.686ZM269.889 82.6965C267.258 80.9384 264.164 80 261 80C256.757 80 252.687 81.6857 249.686 84.6863C246.686 87.6869 245 91.7565 245 96C245 99.1645 245.938 102.258 247.696 104.889C249.455 107.52 251.953 109.571 254.877 110.782C257.801 111.993 261.018 112.31 264.121 111.693C267.225 111.075 270.076 109.551 272.314 107.314C274.551 105.076 276.075 102.225 276.693 99.1214C277.31 96.0177 276.993 92.8007 275.782 89.8771C274.571 86.9535 272.52 84.4546 269.889 82.6965ZM141.889 114.696C139.258 112.938 136.165 112 133 112C128.757 112 124.687 113.686 121.686 116.686C118.686 119.687 117 123.757 117 128C117 131.165 117.938 134.258 119.696 136.889C121.455 139.52 123.953 141.571 126.877 142.782C129.801 143.993 133.018 144.31 136.121 143.693C139.225 143.075 142.076 141.551 144.314 139.314C146.551 137.076 148.075 134.225 148.693 131.121C149.31 128.018 148.993 124.801 147.782 121.877C146.571 118.953 144.52 116.455 141.889 114.696Z" fill="black"/>
</g>
<defs>
<clipPath id="clip0">
<rect width="512" height="512" fill="white"/>
</clipPath>
</defs>
</svg>
